<svg width="24" height="24" viewBox="0 0 24 24" fill="none" xmlns="http://www.w3.org/2000/svg">
<path d="M5.81129 1.84912H17.7156C18.7662 1.84962 19.7734 2.26738 20.5164 3.01025C21.2129 3.70674 21.6236 4.63564 21.6726 5.61475L21.6775 5.81201V17.7153C21.6775 18.7664 21.2604 19.7747 20.5173 20.5181C19.7744 21.2613 18.7665 21.6787 17.7156 21.6792H5.81129C4.76002 21.6792 3.75192 21.2614 3.00856 20.5181C2.26523 19.7747 1.84743 18.7666 1.84743 17.7153V5.81201C1.84783 4.76098 2.26524 3.75234 3.00856 3.00928C3.75188 2.26624 4.76029 1.84916 5.81129 1.84912ZM11.7634 5.98389C10.2305 5.98389 8.76048 6.59238 7.67653 7.67627C6.59262 8.76018 5.98323 10.2303 5.98317 11.7632C5.98317 13.2961 6.59263 14.7661 7.67653 15.8501C8.76049 16.9341 10.2305 17.5435 11.7634 17.5435C13.2964 17.5435 14.7664 16.9341 15.8504 15.8501C16.9342 14.7661 17.5437 13.2961 17.5437 11.7632C17.5437 10.2303 16.9343 8.76018 15.8504 7.67627C14.7664 6.59238 13.2963 5.98389 11.7634 5.98389ZM11.7654 8.69775C12.5784 8.69782 13.3585 9.02034 13.9334 9.59521C14.5082 10.1701 14.8308 10.9502 14.8308 11.7632C14.8308 12.5761 14.5081 13.3562 13.9334 13.9312C13.3585 14.506 12.5784 14.8295 11.7654 14.8296C10.9523 14.8296 10.1724 14.5061 9.59743 13.9312C9.02249 13.3562 8.69899 12.5763 8.69899 11.7632C8.69905 10.9502 9.02255 10.1701 9.59743 9.59521C10.1723 9.02043 10.9524 8.69775 11.7654 8.69775ZM17.7136 4.03271C17.2401 4.03274 16.7858 4.22041 16.4509 4.55518C16.1161 4.88997 15.9286 5.34441 15.9285 5.81787C15.9285 6.29136 16.1162 6.7457 16.4509 7.08057C16.7858 7.41543 17.2401 7.60398 17.7136 7.604C18.1872 7.604 18.6414 7.41545 18.9763 7.08057C19.3111 6.74569 19.4998 6.2914 19.4998 5.81787C19.4997 5.34441 19.3111 4.88997 18.9763 4.55518C18.6415 4.22044 18.1871 4.03271 17.7136 4.03271Z" fill="#292A2B" stroke="#292A2B"/>
</svg>
