<svg width="24" height="24" viewBox="0 0 24 24" fill="none" xmlns="http://www.w3.org/2000/svg">
<mask id="path-1-inside-1_39_562" fill="white">
<path d="M18.857 3H5.143C4.5748 3.00053 4.03003 3.22648 3.62826 3.62826C3.22648 4.03003 3.00053 4.5748 3 5.143V18.857C3 20.04 3.961 21 5.143 21H18.857C19.4252 20.9995 19.97 20.7735 20.3717 20.3717C20.7735 19.97 20.9995 19.4252 21 18.857V5.143C20.9995 4.5748 20.7735 4.03003 20.3717 3.62826C19.97 3.22648 19.4252 3.00053 18.857 3ZM17.145 10.853C16.5142 10.9142 15.8796 10.785 15.323 10.482C14.8535 10.2289 14.4548 9.86245 14.163 9.416V14.36C14.163 15.0827 13.9487 15.7892 13.5472 16.3901C13.1457 16.9909 12.575 17.4593 11.9073 17.7359C11.2396 18.0124 10.5049 18.0848 9.79614 17.9438C9.08733 17.8028 8.43625 17.4548 7.92523 16.9438C7.41421 16.4327 7.0662 15.7817 6.92521 15.0729C6.78422 14.3641 6.85658 13.6294 7.13314 12.9617C7.40971 12.294 7.87805 11.7233 8.47895 11.3218C9.07984 10.9203 9.78631 10.706 10.509 10.706C10.585 10.706 10.659 10.713 10.734 10.717V12.518C10.659 12.509 10.586 12.495 10.509 12.495C10.0144 12.495 9.54 12.6915 9.19025 13.0412C8.84049 13.391 8.644 13.8654 8.644 14.36C8.644 14.8546 8.84049 15.329 9.19025 15.6788C9.54 16.0285 10.0144 16.225 10.509 16.225C11.539 16.225 12.449 15.414 12.449 14.384L12.467 5.986H14.19C14.2689 6.73443 14.6082 7.43136 15.1487 7.95503C15.6892 8.4787 16.3965 8.79583 17.147 8.851V10.853"/>
</mask>
<path d="M18.857 3H5.143C4.5748 3.00053 4.03003 3.22648 3.62826 3.62826C3.22648 4.03003 3.00053 4.5748 3 5.143V18.857C3 20.04 3.961 21 5.143 21H18.857C19.4252 20.9995 19.97 20.7735 20.3717 20.3717C20.7735 19.97 20.9995 19.4252 21 18.857V5.143C20.9995 4.5748 20.7735 4.03003 20.3717 3.62826C19.97 3.22648 19.4252 3.00053 18.857 3ZM17.145 10.853C16.5142 10.9142 15.8796 10.785 15.323 10.482C14.8535 10.2289 14.4548 9.86245 14.163 9.416V14.36C14.163 15.0827 13.9487 15.7892 13.5472 16.3901C13.1457 16.9909 12.575 17.4593 11.9073 17.7359C11.2396 18.0124 10.5049 18.0848 9.79614 17.9438C9.08733 17.8028 8.43625 17.4548 7.92523 16.9438C7.41421 16.4327 7.0662 15.7817 6.92521 15.0729C6.78422 14.3641 6.85658 13.6294 7.13314 12.9617C7.40971 12.294 7.87805 11.7233 8.47895 11.3218C9.07984 10.9203 9.78631 10.706 10.509 10.706C10.585 10.706 10.659 10.713 10.734 10.717V12.518C10.659 12.509 10.586 12.495 10.509 12.495C10.0144 12.495 9.54 12.6915 9.19025 13.0412C8.84049 13.391 8.644 13.8654 8.644 14.36C8.644 14.8546 8.84049 15.329 9.19025 15.6788C9.54 16.0285 10.0144 16.225 10.509 16.225C11.539 16.225 12.449 15.414 12.449 14.384L12.467 5.986H14.19C14.2689 6.73443 14.6082 7.43136 15.1487 7.95503C15.6892 8.4787 16.3965 8.79583 17.147 8.851V10.853" fill="#292A2B"/>
<path d="M18.857 3L18.8579 2H18.857V3ZM5.143 3V2L5.14207 2L5.143 3ZM3 5.143L2 5.14207V5.143H3ZM18.857 21V22H18.8579L18.857 21ZM21 18.857L22 18.8579V18.857H21ZM21 5.143H22V5.14207L21 5.143ZM15.323 10.482L15.8011 9.60371L15.7976 9.60178L15.323 10.482ZM14.163 9.416L15.0001 8.86891L13.163 6.05811V9.416H14.163ZM10.734 10.717H11.734V9.76891L10.7873 9.71842L10.734 10.717ZM10.734 12.518L10.6149 13.5109L11.734 13.6452V12.518H10.734ZM10.509 12.495V11.495V12.495ZM8.644 14.36H7.644H8.644ZM10.509 16.225V17.225V16.225ZM12.449 14.384L11.449 14.3819V14.384H12.449ZM12.467 5.986V4.986H11.4691L11.467 5.98386L12.467 5.986ZM14.19 5.986L15.1845 5.88121L15.0902 4.986H14.19V5.986ZM17.147 8.851H18.147V7.92181L17.2203 7.85369L17.147 8.851ZM18.857 3V2H5.143V3V4H18.857V3ZM5.143 3L5.14207 2C4.30898 2.00078 3.51023 2.33206 2.92115 2.92115L3.62826 3.62826L4.33536 4.33536C4.54983 4.12089 4.84063 4.00028 5.14393 4L5.143 3ZM3.62826 3.62826L2.92115 2.92115C2.33206 3.51023 2.00078 4.30898 2 5.14207L3 5.143L4 5.14393C4.00028 4.84063 4.12089 4.54983 4.33536 4.33536L3.62826 3.62826ZM3 5.143H2V18.857H3H4V5.143H3ZM3 18.857H2C2 20.5926 3.40902 22 5.143 22V21V20C4.51298 20 4 19.4874 4 18.857H3ZM5.143 21V22H18.857V21V20H5.143V21ZM18.857 21L18.8579 22C19.691 21.9992 20.4898 21.6679 21.0789 21.0789L20.3717 20.3717L19.6646 19.6646C19.4502 19.8791 19.1594 19.9997 18.8561 20L18.857 21ZM20.3717 20.3717L21.0789 21.0789C21.6679 20.4898 21.9992 19.691 22 18.8579L21 18.857L20 18.8561C19.9997 19.1594 19.8791 19.4502 19.6646 19.6646L20.3717 20.3717ZM21 18.857H22V5.143H21H20V18.857H21ZM21 5.143L22 5.14207C21.9992 4.30898 21.6679 3.51023 21.0789 2.92115L20.3717 3.62826L19.6646 4.33536C19.8791 4.54983 19.9997 4.84063 20 5.14393L21 5.143ZM20.3717 3.62826L21.0789 2.92115C20.4898 2.33207 19.691 2.00078 18.8579 2L18.857 3L18.8561 4C19.1594 4.00028 19.4502 4.12089 19.6646 4.33536L20.3717 3.62826ZM17.145 10.853L17.0484 9.85768C16.6166 9.8996 16.1821 9.81114 15.8011 9.60371L15.323 10.482L14.8449 11.3603C15.577 11.7589 16.4119 11.9289 17.2416 11.8483L17.145 10.853ZM15.323 10.482L15.7976 9.60178C15.4748 9.42777 15.2007 9.17584 15.0001 8.86891L14.163 9.416L13.3259 9.96309C13.7089 10.5491 14.2323 11.03 14.8484 11.3622L15.323 10.482ZM14.163 9.416H13.163V14.36H14.163H15.163V9.416H14.163ZM14.163 14.36H13.163C13.163 14.8849 13.0073 15.398 12.7157 15.8345L13.5472 16.3901L14.3787 16.9456C14.89 16.1803 15.163 15.2805 15.163 14.36H14.163ZM13.5472 16.3901L12.7157 15.8345C12.4241 16.2709 12.0096 16.6111 11.5246 16.812L11.9073 17.7359L12.29 18.6597C13.1404 18.3075 13.8673 17.711 14.3787 16.9456L13.5472 16.3901ZM11.9073 17.7359L11.5246 16.812C11.0397 17.0129 10.5061 17.0654 9.99123 16.963L9.79614 17.9438L9.60105 18.9246C10.5038 19.1041 11.4396 19.012 12.29 18.6597L11.9073 17.7359ZM9.79614 17.9438L9.99123 16.963C9.4764 16.8606 9.00351 16.6078 8.63234 16.2367L7.92523 16.9438L7.21813 17.6509C7.869 18.3017 8.69826 18.745 9.60105 18.9246L9.79614 17.9438ZM7.92523 16.9438L8.63234 16.2367C8.26117 15.8655 8.0084 15.3926 7.906 14.8778L6.92521 15.0729L5.94443 15.268C6.124 16.1707 6.56725 17 7.21813 17.6509L7.92523 16.9438ZM6.92521 15.0729L7.906 14.8778C7.80359 14.3629 7.85615 13.8293 8.05702 13.3444L7.13314 12.9617L6.20926 12.579C5.85701 13.4294 5.76485 14.3652 5.94443 15.268L6.92521 15.0729ZM7.13314 12.9617L8.05702 13.3444C8.2579 12.8594 8.59807 12.4449 9.03452 12.1533L8.47895 11.3218L7.92338 10.4903C7.15803 11.0017 6.56152 11.7286 6.20926 12.579L7.13314 12.9617ZM8.47895 11.3218L9.03452 12.1533C9.47096 11.8617 9.98409 11.706 10.509 11.706V10.706V9.706C9.58853 9.706 8.68872 9.97895 7.92338 10.4903L8.47895 11.3218ZM10.509 10.706V11.706C10.5506 11.706 10.5509 11.7087 10.6807 11.7156L10.734 10.717L10.7873 9.71842C10.7671 9.71735 10.6194 9.706 10.509 9.706V10.706ZM10.734 10.717H9.734V12.518H10.734H11.734V10.717H10.734ZM10.734 12.518L10.8531 11.5251C10.8446 11.5241 10.8344 11.5227 10.8154 11.5201C10.799 11.5178 10.7727 11.5141 10.7455 11.5107C10.69 11.5039 10.6065 11.495 10.509 11.495V12.495V13.495C10.4885 13.495 10.48 13.4931 10.499 13.4955C10.5091 13.4968 10.5199 13.4982 10.5407 13.5011C10.5588 13.5036 10.5859 13.5074 10.6149 13.5109L10.734 12.518ZM10.509 12.495V11.495C9.74916 11.495 9.02043 11.7968 8.48314 12.3341L9.19025 13.0412L9.89735 13.7484C10.0596 13.5861 10.2796 13.495 10.509 13.495V12.495ZM9.19025 13.0412L8.48314 12.3341C7.94585 12.8714 7.644 13.6002 7.644 14.36H8.644H9.644C9.644 14.1306 9.73513 13.9106 9.89735 13.7484L9.19025 13.0412ZM8.644 14.36H7.644C7.644 15.1198 7.94585 15.8486 8.48314 16.3859L9.19025 15.6788L9.89735 14.9716C9.73513 14.8094 9.644 14.5894 9.644 14.36H8.644ZM9.19025 15.6788L8.48314 16.3859C9.02043 16.9232 9.74915 17.225 10.509 17.225V16.225V15.225C10.2796 15.225 10.0596 15.1339 9.89735 14.9716L9.19025 15.6788ZM10.509 16.225V17.225C12.0223 17.225 13.449 16.0329 13.449 14.384H12.449H11.449C11.449 14.7951 11.0557 15.225 10.509 15.225V16.225ZM12.449 14.384L13.449 14.3861L13.467 5.98814L12.467 5.986L11.467 5.98386L11.449 14.3819L12.449 14.384ZM12.467 5.986V6.986H14.19V5.986V4.986H12.467V5.986ZM14.19 5.986L13.1955 6.09079C13.2989 7.07237 13.7439 7.98641 14.4528 8.67322L15.1487 7.95503L15.8445 7.23684C15.4724 6.8763 15.2388 6.39649 15.1845 5.88121L14.19 5.986ZM15.1487 7.95503L14.4528 8.67322C15.1617 9.36003 16.0893 9.77595 17.0737 9.84831L17.147 8.851L17.2203 7.85369C16.7036 7.81571 16.2166 7.59738 15.8445 7.23684L15.1487 7.95503ZM17.147 8.851H16.147V10.853H17.147H18.147V8.851H17.147Z" fill="#292A2B" mask="url(#path-1-inside-1_39_562)"/>
</svg>
