<svg width="24" height="24" viewBox="0 0 24 24" fill="none" xmlns="http://www.w3.org/2000/svg">
<path d="M12 2.5C17.2439 2.5 21.5 6.75614 21.5 12C21.5 17.2439 17.2439 21.5 12 21.5C6.75614 21.5 2.5 17.2439 2.5 12C2.5 6.75614 6.75614 2.5 12 2.5ZM16.1104 7.53027C15.8257 7.53027 15.5163 7.60817 14.9746 7.80469C14.4243 8.00434 13.5761 8.34914 12.1895 8.92773C11.2152 9.32949 9.27355 10.1703 6.3623 11.4365C6.11188 11.5378 5.88775 11.6489 5.71484 11.7764C5.55629 11.8933 5.34742 12.0928 5.31348 12.3936C5.2881 12.6163 5.35194 12.8211 5.4834 12.9854C5.60013 13.131 5.75277 13.2233 5.87891 13.2852C6.11917 13.4029 6.45916 13.4973 6.73828 13.5859C7.00079 13.6733 7.30812 13.7666 7.59961 13.8398C7.88272 13.9109 8.18754 13.9728 8.42578 13.9795V13.9785C8.898 13.9929 9.36354 13.7886 9.7998 13.4941C10.279 13.1712 10.7182 12.878 11.1152 12.6113C10.9941 12.7238 10.9117 12.8012 10.8867 12.8262L10.8838 12.8291C10.8192 12.8948 10.7518 12.9587 10.6816 13.0254C10.6136 13.09 10.5402 13.1605 10.4717 13.2295C10.3425 13.3595 10.1816 13.5345 10.0879 13.7471C9.97905 13.9939 9.96567 14.2784 10.1133 14.5605C10.2099 14.7451 10.3637 14.9048 10.5498 15.0488L10.7451 15.1875C11.1664 15.465 11.5006 15.6933 11.8418 15.9258L12.9746 16.6875C13.1054 16.7739 13.2274 16.8623 13.3623 16.958C13.4924 17.0503 13.6334 17.1486 13.7803 17.2344C14.077 17.4077 14.4383 17.556 14.873 17.5186L14.8799 17.5176L14.8877 17.5166C15.4926 17.4466 15.8517 16.887 16.002 16.082C16.3316 14.314 16.9852 10.4533 17.1377 8.84766L17.1387 8.83594C17.1459 8.73516 17.142 8.62866 17.1396 8.5625L17.1367 8.47949L17.1455 8.43066L17.1357 8.3584C17.1186 8.22142 17.0597 7.96207 16.8193 7.76562H16.8203C16.6786 7.64756 16.5187 7.59332 16.4072 7.56641C16.2916 7.53851 16.1845 7.5303 16.1104 7.53027Z" fill="#292A2B" stroke="#292A2B"/>
</svg>
