<svg width="205" height="38" viewBox="0 0 205 38" fill="none" xmlns="http://www.w3.org/2000/svg">
<path d="M9.23828 22.1875H11.7188C14.0234 22.1875 15.6185 21.6732 16.5039 20.6445C17.4023 19.6159 17.8516 17.7734 17.8516 15.1172C17.8516 12.526 17.3958 10.6901 16.4844 9.60938C15.5729 8.52865 14.0234 7.98828 11.8359 7.98828H9.23828V22.1875ZM0 29.4727V0.703125H11.1719C14.0104 0.703125 16.1198 0.833333 17.5 1.09375C18.8932 1.34115 20.1042 1.75781 21.1328 2.34375C23.125 3.51562 24.6224 5.16276 25.625 7.28516C26.6276 9.40755 27.1289 12.0182 27.1289 15.1172C27.1289 18.3724 26.5039 21.1133 25.2539 23.3398C24.0169 25.5534 22.1875 27.2005 19.7656 28.2812C18.8281 28.7109 17.6497 29.0169 16.2305 29.1992C14.8242 29.3815 12.5651 29.4727 9.45312 29.4727H0ZM30.9766 29.4727V8.24219H38.7695V12.1094C39.3294 10.5729 40.1302 9.45312 41.1719 8.75C42.2266 8.03385 43.6263 7.67578 45.3711 7.67578H46.1328V16.0938C45.8203 16.0677 45.5208 16.0482 45.2344 16.0352C44.9479 16.0091 44.6745 15.9961 44.4141 15.9961C42.7083 15.9961 41.4518 16.3802 40.6445 17.1484C39.8503 17.9167 39.4531 19.1211 39.4531 20.7617V29.4727H30.9766ZM49.4141 6.07422V0H57.9297V6.07422H49.4141ZM49.4141 29.4727V8.24219H57.9297V29.4727H49.4141ZM62.7344 29.4727V8.24219H70.4102V11.3477C71.3477 10.0977 72.4023 9.17318 73.5742 8.57422C74.7461 7.97526 76.0938 7.67578 77.6172 7.67578C79.0104 7.67578 80.2083 7.96875 81.2109 8.55469C82.2266 9.14062 83.1315 10.0716 83.9258 11.3477C84.9544 10.0716 86.0807 9.13411 87.3047 8.53516C88.5286 7.9362 89.9089 7.63672 91.4453 7.63672C93.9453 7.63672 95.8854 8.28125 97.2656 9.57031C98.6458 10.8594 99.3359 12.6693 99.3359 15V29.4727H91.0156V18.1055C91.0156 16.7773 90.7878 15.8138 90.332 15.2148C89.8893 14.6159 89.1667 14.3164 88.1641 14.3164C87.1354 14.3164 86.3802 14.6289 85.8984 15.2539C85.4167 15.8789 85.1758 16.8555 85.1758 18.1836V29.4727H76.8945V18.3984C76.8945 16.9401 76.6602 15.8984 76.1914 15.2734C75.7357 14.6354 74.9805 14.3164 73.9258 14.3164C72.9883 14.3164 72.2721 14.6354 71.7773 15.2734C71.2956 15.9115 71.0547 16.8424 71.0547 18.0664V29.4727H62.7344ZM118.047 20C117.24 20.3125 116.165 20.6445 114.824 20.9961C112.715 21.556 111.66 22.3047 111.66 23.2422C111.66 23.8411 111.868 24.3099 112.285 24.6484C112.702 24.987 113.294 25.1562 114.062 25.1562C115.469 25.1562 116.491 24.8307 117.129 24.1797C117.78 23.5286 118.105 22.4935 118.105 21.0742C118.105 20.7747 118.099 20.5534 118.086 20.4102C118.086 20.2539 118.073 20.1172 118.047 20ZM118.828 29.4727L118.301 27.4414C117.22 28.3919 116.055 29.0951 114.805 29.5508C113.555 30.0065 112.148 30.2344 110.586 30.2344C108.19 30.2344 106.335 29.6484 105.02 28.4766C103.717 27.2917 103.066 25.625 103.066 23.4766C103.066 21.3802 103.711 19.8307 105 18.8281C106.289 17.8255 108.724 17.0964 112.305 16.6406C112.76 16.5755 113.372 16.5039 114.141 16.4258C116.81 16.1393 118.145 15.4492 118.145 14.3555C118.145 13.7435 117.897 13.3008 117.402 13.0273C116.921 12.7409 116.152 12.5977 115.098 12.5977C114.225 12.5977 113.555 12.7734 113.086 13.125C112.617 13.4635 112.344 13.9909 112.266 14.707H104.023C104.062 12.3242 105.039 10.5273 106.953 9.31641C108.867 8.09245 111.68 7.48047 115.391 7.48047C117.135 7.48047 118.743 7.64323 120.215 7.96875C121.699 8.29427 122.852 8.73047 123.672 9.27734C124.674 9.95443 125.378 10.7227 125.781 11.582C126.185 12.4284 126.387 13.6458 126.387 15.2344V27.0703C126.387 27.4609 126.465 27.8125 126.621 28.125C126.777 28.4245 127.005 28.6719 127.305 28.8672V29.4727H118.828ZM131.602 37.832V31.543H134.004C134.824 31.543 135.417 31.3997 135.781 31.1133C136.146 30.8398 136.328 30.3841 136.328 29.7461C136.328 29.4727 136.289 29.1667 136.211 28.8281C136.146 28.4896 136.035 28.1055 135.879 27.6758L128.77 8.24219H137.324L141.035 21.1133L144.648 8.24219H152.598L145.723 29.3555C144.941 31.7253 144.336 33.3464 143.906 34.2188C143.49 35.1042 143.04 35.7747 142.559 36.2305C141.921 36.8685 141.152 37.3177 140.254 37.5781C139.355 37.8516 137.897 37.9883 135.879 37.9883C135.293 37.9883 134.635 37.9753 133.906 37.9492C133.177 37.9232 132.409 37.8841 131.602 37.832ZM154.766 29.4727V0.703125H163.203V14.7461L168.77 8.24219H178.242L170.352 16.0742L179.316 29.4727H169.277L164.648 21.875L163.203 23.3594V29.4727H154.766ZM189.004 18.8281C189.004 20.7943 189.271 22.207 189.805 23.0664C190.352 23.9258 191.243 24.3555 192.48 24.3555C193.717 24.3555 194.609 23.9258 195.156 23.0664C195.716 22.194 195.996 20.7812 195.996 18.8281C195.996 16.888 195.716 15.4948 195.156 14.6484C194.609 13.7891 193.717 13.3594 192.48 13.3594C191.243 13.3594 190.352 13.7826 189.805 14.6289C189.271 15.4753 189.004 16.875 189.004 18.8281ZM180.469 18.8281C180.469 15.3125 181.536 12.5456 183.672 10.5273C185.807 8.49609 188.743 7.48047 192.48 7.48047C196.217 7.48047 199.147 8.49609 201.27 10.5273C203.405 12.5456 204.473 15.3125 204.473 18.8281C204.473 22.3698 203.405 25.1562 201.27 27.1875C199.134 29.2188 196.204 30.2344 192.48 30.2344C188.757 30.2344 185.82 29.2188 183.672 27.1875C181.536 25.1562 180.469 22.3698 180.469 18.8281Z" fill="#8D97A1" fill-opacity="0.14"/>
</svg>
